<svg xmlns="http://www.w3.org/2000/svg" version="1.1" xmlns:xlink="http://www.w3.org/1999/xlink" width="1000" height="1000"><style>
    #light-icon {
      display: inline;
    }
    #dark-icon {
      display: none;
    }

    @media (prefers-color-scheme: dark) {
      #light-icon {
        display: none;
      }
      #dark-icon {
        display: inline;
      }
    }
  </style><g id="light-icon"><svg xmlns="http://www.w3.org/2000/svg" version="1.1" xmlns:xlink="http://www.w3.org/1999/xlink" width="1000" height="1000"><g><g transform="matrix(2.5839793281653747,0,0,2.5839793281653747,0,94.31524547803616)"><svg xmlns="http://www.w3.org/2000/svg" version="1.1" xmlns:xlink="http://www.w3.org/1999/xlink" width="387" height="314"><svg xmlns="http://www.w3.org/2000/svg" viewBox="0 0 387 314" width="387" height="314"><defs></defs><g transform="matrix(5,0,0,5,-5662.529984543,-3333.755364852)">
<g>
	<g>
		<g>
			<path d="M1171.2093297662211,696.2739215933168 C1171.2093297662211,696.2739215933168 1171.2093264422776,729.6975882923609 1171.2093264422776,729.6975882923609 C1171.2093264422776,729.6975882923609 1209.9126626238508,712.283676707896 1209.9126626238508,712.283676707896 C1209.9126626238508,712.283676707896 1171.2093297662211,696.2739215933168 1171.2093297662211,696.2739215933168 Z" fill="#1b499f"></path>
		</g>
		<g>
			<path d="M1171.2093264422776,729.6975882923608 C1171.2093264422776,729.6975882923608 1209.9126626238508,712.283676707896 1209.9126626238508,712.283676707896 C1209.9126626238508,712.283676707896 1195.883660828448,688.1051555288979 1195.883660828448,688.1051555288979 C1195.883660828448,688.1051555288979 1187.8035903134512,684.8904096423947 1187.8035903134512,684.8904096423947 C1187.8035903134512,684.8904096423947 1187.8035903144316,674.1614272508373 1187.8035903144316,674.1614272508373 C1187.8035903144316,674.1614272508373 1171.2093297662373,681.52487294224 1171.2093297662373,681.52487294224 C1171.2093297662373,681.52487294224 1171.2093264422776,729.6975882923608 1171.2093264422776,729.6975882923608 Z" fill="#e0e0e0" opacity="0.504883"></path>
		</g>
		<g>
			<path d="M1171.2094169591774,666.75107297042 C1171.2094169591774,666.75107297042 1187.8035903144312,674.1614272508373 1187.8035903144312,674.1614272508373 C1187.8035903144312,674.1614272508373 1171.2093297662373,681.5248729422399 1171.2093297662373,681.5248729422399 C1171.2093297662373,681.5248729422399 1171.2094169591774,666.75107297042 1171.2094169591774,666.75107297042 Z" fill="#1b499f"></path>
		</g>
		<g>
			<path d="M1171.2093297661918,696.2739215933082 C1171.2093297661918,696.2739215933082 1171.2093330901353,729.6975882923515 1171.2093330901353,729.6975882923515 C1171.2093330901353,729.6975882923515 1132.505996908563,712.283676707887 1132.505996908563,712.283676707887 C1132.505996908563,712.283676707887 1171.2093297661918,696.2739215933082 1171.2093297661918,696.2739215933082 Z" fill="#1b499f"></path>
		</g>
		<g>
			<path d="M1171.2093330901353,729.6975882923515 C1171.2093330901353,729.6975882923515 1132.5059969085628,712.2836767078869 1132.5059969085628,712.2836767078869 C1132.5059969085628,712.2836767078869 1146.5349987039656,688.1051555288893 1146.5349987039656,688.1051555288893 C1146.5349987039656,688.1051555288893 1154.6150692189622,684.8904096423863 1154.6150692189622,684.8904096423863 C1154.6150692189622,684.8904096423863 1154.6150692179817,674.1614272508292 1154.6150692179817,674.1614272508292 C1154.6150692179817,674.1614272508292 1171.2093297661756,681.5248729422317 1171.2093297661756,681.5248729422317 C1171.2093297661756,681.5248729422317 1171.2093330901353,729.6975882923515 1171.2093330901353,729.6975882923515 Z" fill="#222222" opacity="0.497396"></path>
		</g>
		<g>
			<path d="M1171.2094169591774,666.7510729704198 C1171.2094169591774,666.7510729704198 1154.6150692179815,674.1614272508292 1154.6150692179815,674.1614272508292 C1154.6150692179815,674.1614272508292 1171.2093297662377,681.5248729422397 1171.2093297662377,681.5248729422397 C1171.2093297662377,681.5248729422397 1171.2094169591774,666.7510729704198 1171.2094169591774,666.7510729704198 Z" fill="#1b499f"></path>
		</g>
	</g>
	<g>
		<g transform="matrix(1,0,0,1,0,-115.963001571)">
			<path d="M1171.2093297662211,696.2739215933168 C1171.2093297662211,696.2739215933168 1171.2093264422776,729.6975882923609 1171.2093264422776,729.6975882923609 C1171.2093264422776,729.6975882923609 1209.9126626238508,712.283676707896 1209.9126626238508,712.283676707896 C1209.9126626238508,712.283676707896 1171.2093297662211,696.2739215933168 1171.2093297662211,696.2739215933168 Z" fill="#ffffff"></path>
		</g>
		<g transform="matrix(1,0,0,1,0,-115.963001571)">
			<path d="M1171.2093264422776,729.6975882923608 C1171.2093264422776,729.6975882923608 1209.9126626238508,712.283676707896 1209.9126626238508,712.283676707896 C1209.9126626238508,712.283676707896 1195.883660828448,688.1051555288979 1195.883660828448,688.1051555288979 C1195.883660828448,688.1051555288979 1187.8035903134512,684.8904096423947 1187.8035903134512,684.8904096423947 C1187.8035903134512,684.8904096423947 1187.8035903144316,674.1614272508373 1187.8035903144316,674.1614272508373 C1187.8035903144316,674.1614272508373 1171.2093297662373,681.52487294224 1171.2093297662373,681.52487294224 C1171.2093297662373,681.52487294224 1171.2093264422776,729.6975882923608 1171.2093264422776,729.6975882923608 Z" fill="#e0e0e0" opacity="0.504883"></path>
		</g>
		<g transform="matrix(1,0,0,1,0,-115.963001571)">
			<path d="M1171.2094169591774,666.75107297042 C1171.2094169591774,666.75107297042 1187.8035903144312,674.1614272508373 1187.8035903144312,674.1614272508373 C1187.8035903144312,674.1614272508373 1171.2093297662373,681.5248729422399 1171.2093297662373,681.5248729422399 C1171.2093297662373,681.5248729422399 1171.2094169591774,666.75107297042 1171.2094169591774,666.75107297042 Z" fill="#ffffff"></path>
		</g>
		<g transform="matrix(1,0,0,1,0,-115.963001571)">
			<path d="M1171.2093297661918,696.2739215933082 C1171.2093297661918,696.2739215933082 1171.2093330901353,729.6975882923515 1171.2093330901353,729.6975882923515 C1171.2093330901353,729.6975882923515 1132.505996908563,712.283676707887 1132.505996908563,712.283676707887 C1132.505996908563,712.283676707887 1171.2093297661918,696.2739215933082 1171.2093297661918,696.2739215933082 Z" fill="#ffffff"></path>
		</g>
		<g transform="matrix(1,0,0,1,0,-115.963001571)">
			<path d="M1171.2093330901353,729.6975882923515 C1171.2093330901353,729.6975882923515 1132.5059969085628,712.2836767078869 1132.5059969085628,712.2836767078869 C1132.5059969085628,712.2836767078869 1146.5349987039656,688.1051555288893 1146.5349987039656,688.1051555288893 C1146.5349987039656,688.1051555288893 1154.6150692189622,684.8904096423863 1154.6150692189622,684.8904096423863 C1154.6150692189622,684.8904096423863 1154.6150692179817,674.1614272508292 1154.6150692179817,674.1614272508292 C1154.6150692179817,674.1614272508292 1171.2093297661756,681.5248729422317 1171.2093297661756,681.5248729422317 C1171.2093297661756,681.5248729422317 1171.2093330901353,729.6975882923515 1171.2093330901353,729.6975882923515 Z" fill="#222222" opacity="0.497396"></path>
		</g>
		<g transform="matrix(1,0,0,1,0,-115.963001571)">
			<path d="M1171.2094169591774,666.7510729704198 C1171.2094169591774,666.7510729704198 1154.6150692179815,674.1614272508292 1154.6150692179815,674.1614272508292 C1154.6150692179815,674.1614272508292 1171.2093297662377,681.5248729422397 1171.2093297662377,681.5248729422397 C1171.2093297662377,681.5248729422397 1171.2094169591774,666.7510729704198 1171.2094169591774,666.7510729704198 Z" fill="#ffffff"></path>
		</g>
	</g>
	<g>
		<g transform="matrix(1,0,0,1,151.162414412,-115.963001571)">
			<path d="M1171.2093297662211,696.2739215933168 C1171.2093297662211,696.2739215933168 1171.2093264422776,729.6975882923609 1171.2093264422776,729.6975882923609 C1171.2093264422776,729.6975882923609 1209.9126626238508,712.283676707896 1209.9126626238508,712.283676707896 C1209.9126626238508,712.283676707896 1171.2093297662211,696.2739215933168 1171.2093297662211,696.2739215933168 Z" fill="#000000"></path>
		</g>
		<g transform="matrix(1,0,0,1,151.162414412,-115.963001571)">
			<path d="M1171.2093264422776,729.6975882923608 C1171.2093264422776,729.6975882923608 1209.9126626238508,712.283676707896 1209.9126626238508,712.283676707896 C1209.9126626238508,712.283676707896 1195.883660828448,688.1051555288979 1195.883660828448,688.1051555288979 C1195.883660828448,688.1051555288979 1187.8035903134512,684.8904096423947 1187.8035903134512,684.8904096423947 C1187.8035903134512,684.8904096423947 1187.8035903144316,674.1614272508373 1187.8035903144316,674.1614272508373 C1187.8035903144316,674.1614272508373 1171.2093297662373,681.52487294224 1171.2093297662373,681.52487294224 C1171.2093297662373,681.52487294224 1171.2093264422776,729.6975882923608 1171.2093264422776,729.6975882923608 Z" fill="#e0e0e0" opacity="0.504883"></path>
		</g>
		<g transform="matrix(1,0,0,1,151.162414412,-115.963001571)">
			<path d="M1171.2094169591774,666.75107297042 C1171.2094169591774,666.75107297042 1187.8035903144312,674.1614272508373 1187.8035903144312,674.1614272508373 C1187.8035903144312,674.1614272508373 1171.2093297662373,681.5248729422399 1171.2093297662373,681.5248729422399 C1171.2093297662373,681.5248729422399 1171.2094169591774,666.75107297042 1171.2094169591774,666.75107297042 Z" fill="#000000"></path>
		</g>
		<g transform="matrix(1,0,0,1,151.162414412,-115.963001571)">
			<path d="M1171.2093297661918,696.2739215933082 C1171.2093297661918,696.2739215933082 1171.2093330901353,729.6975882923515 1171.2093330901353,729.6975882923515 C1171.2093330901353,729.6975882923515 1132.505996908563,712.283676707887 1132.505996908563,712.283676707887 C1132.505996908563,712.283676707887 1171.2093297661918,696.2739215933082 1171.2093297661918,696.2739215933082 Z" fill="#000000"></path>
		</g>
		<g transform="matrix(1,0,0,1,151.162414412,-115.963001571)">
			<path d="M1171.2093330901353,729.6975882923515 C1171.2093330901353,729.6975882923515 1132.5059969085628,712.2836767078869 1132.5059969085628,712.2836767078869 C1132.5059969085628,712.2836767078869 1146.5349987039656,688.1051555288893 1146.5349987039656,688.1051555288893 C1146.5349987039656,688.1051555288893 1154.6150692189622,684.8904096423863 1154.6150692189622,684.8904096423863 C1154.6150692189622,684.8904096423863 1154.6150692179817,674.1614272508292 1154.6150692179817,674.1614272508292 C1154.6150692179817,674.1614272508292 1171.2093297661756,681.5248729422317 1171.2093297661756,681.5248729422317 C1171.2093297661756,681.5248729422317 1171.2093330901353,729.6975882923515 1171.2093330901353,729.6975882923515 Z" fill="#222222" opacity="0.497396"></path>
		</g>
		<g transform="matrix(1,0,0,1,151.162414412,-115.963001571)">
			<path d="M1171.2094169591774,666.7510729704198 C1171.2094169591774,666.7510729704198 1154.6150692179815,674.1614272508292 1154.6150692179815,674.1614272508292 C1154.6150692179815,674.1614272508292 1171.2093297662377,681.5248729422397 1171.2093297662377,681.5248729422397 C1171.2093297662377,681.5248729422397 1171.2094169591774,666.7510729704198 1171.2094169591774,666.7510729704198 Z" fill="#000000"></path>
		</g>
	</g>
</g></g></svg></svg></g></g></svg></g><g id="dark-icon"><svg xmlns="http://www.w3.org/2000/svg" version="1.1" xmlns:xlink="http://www.w3.org/1999/xlink" width="1000" height="1000"><g><g transform="matrix(2.5839793281653747,0,0,2.5839793281653747,0,94.31524547803616)"><svg xmlns="http://www.w3.org/2000/svg" version="1.1" xmlns:xlink="http://www.w3.org/1999/xlink" width="387" height="314"><svg xmlns="http://www.w3.org/2000/svg" viewBox="0 0 387 314" width="387" height="314"><defs></defs><g transform="matrix(5,0,0,5,-5662.529984543,-2753.940356997)">
<g>
	<g>
		<g>
			<path d="M1171.2093297662211,696.2739215933168 C1171.2093297662211,696.2739215933168 1171.2093264422776,729.6975882923609 1171.2093264422776,729.6975882923609 C1171.2093264422776,729.6975882923609 1209.9126626238508,712.283676707896 1209.9126626238508,712.283676707896 C1209.9126626238508,712.283676707896 1171.2093297662211,696.2739215933168 1171.2093297662211,696.2739215933168 Z" fill="#1b499f"></path>
		</g>
		<g>
			<path d="M1171.2093264422776,729.6975882923608 C1171.2093264422776,729.6975882923608 1209.9126626238508,712.283676707896 1209.9126626238508,712.283676707896 C1209.9126626238508,712.283676707896 1195.883660828448,688.1051555288979 1195.883660828448,688.1051555288979 C1195.883660828448,688.1051555288979 1187.8035903134512,684.8904096423947 1187.8035903134512,684.8904096423947 C1187.8035903134512,684.8904096423947 1187.8035903144316,674.1614272508373 1187.8035903144316,674.1614272508373 C1187.8035903144316,674.1614272508373 1171.2093297662373,681.52487294224 1171.2093297662373,681.52487294224 C1171.2093297662373,681.52487294224 1171.2093264422776,729.6975882923608 1171.2093264422776,729.6975882923608 Z" fill="#e0e0e0" opacity="0.504883"></path>
		</g>
		<g>
			<path d="M1171.2094169591774,666.75107297042 C1171.2094169591774,666.75107297042 1187.8035903144312,674.1614272508373 1187.8035903144312,674.1614272508373 C1187.8035903144312,674.1614272508373 1171.2093297662373,681.5248729422399 1171.2093297662373,681.5248729422399 C1171.2093297662373,681.5248729422399 1171.2094169591774,666.75107297042 1171.2094169591774,666.75107297042 Z" fill="#1b499f"></path>
		</g>
		<g>
			<path d="M1171.2093297661918,696.2739215933082 C1171.2093297661918,696.2739215933082 1171.2093330901353,729.6975882923515 1171.2093330901353,729.6975882923515 C1171.2093330901353,729.6975882923515 1132.505996908563,712.283676707887 1132.505996908563,712.283676707887 C1132.505996908563,712.283676707887 1171.2093297661918,696.2739215933082 1171.2093297661918,696.2739215933082 Z" fill="#1b499f"></path>
		</g>
		<g>
			<path d="M1171.2093330901353,729.6975882923515 C1171.2093330901353,729.6975882923515 1132.5059969085628,712.2836767078869 1132.5059969085628,712.2836767078869 C1132.5059969085628,712.2836767078869 1146.5349987039656,688.1051555288893 1146.5349987039656,688.1051555288893 C1146.5349987039656,688.1051555288893 1154.6150692189622,684.8904096423863 1154.6150692189622,684.8904096423863 C1154.6150692189622,684.8904096423863 1154.6150692179817,674.1614272508292 1154.6150692179817,674.1614272508292 C1154.6150692179817,674.1614272508292 1171.2093297661756,681.5248729422317 1171.2093297661756,681.5248729422317 C1171.2093297661756,681.5248729422317 1171.2093330901353,729.6975882923515 1171.2093330901353,729.6975882923515 Z" fill="#222222" opacity="0.497396"></path>
		</g>
		<g>
			<path d="M1171.2094169591774,666.7510729704198 C1171.2094169591774,666.7510729704198 1154.6150692179815,674.1614272508292 1154.6150692179815,674.1614272508292 C1154.6150692179815,674.1614272508292 1171.2093297662377,681.5248729422397 1171.2093297662377,681.5248729422397 C1171.2093297662377,681.5248729422397 1171.2094169591774,666.7510729704198 1171.2094169591774,666.7510729704198 Z" fill="#1b499f"></path>
		</g>
	</g>
	<g>
		<g transform="matrix(1,0,0,1,0,-115.963001571)">
			<path d="M1171.2093297662211,696.2739215933168 C1171.2093297662211,696.2739215933168 1171.2093264422776,729.6975882923609 1171.2093264422776,729.6975882923609 C1171.2093264422776,729.6975882923609 1209.9126626238508,712.283676707896 1209.9126626238508,712.283676707896 C1209.9126626238508,712.283676707896 1171.2093297662211,696.2739215933168 1171.2093297662211,696.2739215933168 Z" fill="#ffffff"></path>
		</g>
		<g transform="matrix(1,0,0,1,0,-115.963001571)">
			<path d="M1171.2093264422776,729.6975882923608 C1171.2093264422776,729.6975882923608 1209.9126626238508,712.283676707896 1209.9126626238508,712.283676707896 C1209.9126626238508,712.283676707896 1195.883660828448,688.1051555288979 1195.883660828448,688.1051555288979 C1195.883660828448,688.1051555288979 1187.8035903134512,684.8904096423947 1187.8035903134512,684.8904096423947 C1187.8035903134512,684.8904096423947 1187.8035903144316,674.1614272508373 1187.8035903144316,674.1614272508373 C1187.8035903144316,674.1614272508373 1171.2093297662373,681.52487294224 1171.2093297662373,681.52487294224 C1171.2093297662373,681.52487294224 1171.2093264422776,729.6975882923608 1171.2093264422776,729.6975882923608 Z" fill="#e0e0e0" opacity="0.504883"></path>
		</g>
		<g transform="matrix(1,0,0,1,0,-115.963001571)">
			<path d="M1171.2094169591774,666.75107297042 C1171.2094169591774,666.75107297042 1187.8035903144312,674.1614272508373 1187.8035903144312,674.1614272508373 C1187.8035903144312,674.1614272508373 1171.2093297662373,681.5248729422399 1171.2093297662373,681.5248729422399 C1171.2093297662373,681.5248729422399 1171.2094169591774,666.75107297042 1171.2094169591774,666.75107297042 Z" fill="#ffffff"></path>
		</g>
		<g transform="matrix(1,0,0,1,0,-115.963001571)">
			<path d="M1171.2093297661918,696.2739215933082 C1171.2093297661918,696.2739215933082 1171.2093330901353,729.6975882923515 1171.2093330901353,729.6975882923515 C1171.2093330901353,729.6975882923515 1132.505996908563,712.283676707887 1132.505996908563,712.283676707887 C1132.505996908563,712.283676707887 1171.2093297661918,696.2739215933082 1171.2093297661918,696.2739215933082 Z" fill="#ffffff"></path>
		</g>
		<g transform="matrix(1,0,0,1,0,-115.963001571)">
			<path d="M1171.2093330901353,729.6975882923515 C1171.2093330901353,729.6975882923515 1132.5059969085628,712.2836767078869 1132.5059969085628,712.2836767078869 C1132.5059969085628,712.2836767078869 1146.5349987039656,688.1051555288893 1146.5349987039656,688.1051555288893 C1146.5349987039656,688.1051555288893 1154.6150692189622,684.8904096423863 1154.6150692189622,684.8904096423863 C1154.6150692189622,684.8904096423863 1154.6150692179817,674.1614272508292 1154.6150692179817,674.1614272508292 C1154.6150692179817,674.1614272508292 1171.2093297661756,681.5248729422317 1171.2093297661756,681.5248729422317 C1171.2093297661756,681.5248729422317 1171.2093330901353,729.6975882923515 1171.2093330901353,729.6975882923515 Z" fill="#222222" opacity="0.497396"></path>
		</g>
		<g transform="matrix(1,0,0,1,0,-115.963001571)">
			<path d="M1171.2094169591774,666.7510729704198 C1171.2094169591774,666.7510729704198 1154.6150692179815,674.1614272508292 1154.6150692179815,674.1614272508292 C1154.6150692179815,674.1614272508292 1171.2093297662377,681.5248729422397 1171.2093297662377,681.5248729422397 C1171.2093297662377,681.5248729422397 1171.2094169591774,666.7510729704198 1171.2094169591774,666.7510729704198 Z" fill="#ffffff"></path>
		</g>
	</g>
	<g>
		<g transform="matrix(1,0,0,1,151.162414412,-115.963001571)">
			<path d="M1171.2093297662211,696.2739215933168 C1171.2093297662211,696.2739215933168 1171.2093264422776,729.6975882923609 1171.2093264422776,729.6975882923609 C1171.2093264422776,729.6975882923609 1209.9126626238508,712.283676707896 1209.9126626238508,712.283676707896 C1209.9126626238508,712.283676707896 1171.2093297662211,696.2739215933168 1171.2093297662211,696.2739215933168 Z" fill="#000000"></path>
		</g>
		<g transform="matrix(1,0,0,1,151.162414412,-115.963001571)">
			<path d="M1171.2093264422776,729.6975882923608 C1171.2093264422776,729.6975882923608 1209.9126626238508,712.283676707896 1209.9126626238508,712.283676707896 C1209.9126626238508,712.283676707896 1195.883660828448,688.1051555288979 1195.883660828448,688.1051555288979 C1195.883660828448,688.1051555288979 1187.8035903134512,684.8904096423947 1187.8035903134512,684.8904096423947 C1187.8035903134512,684.8904096423947 1187.8035903144316,674.1614272508373 1187.8035903144316,674.1614272508373 C1187.8035903144316,674.1614272508373 1171.2093297662373,681.52487294224 1171.2093297662373,681.52487294224 C1171.2093297662373,681.52487294224 1171.2093264422776,729.6975882923608 1171.2093264422776,729.6975882923608 Z" fill="#e0e0e0" opacity="0.504883"></path>
		</g>
		<g transform="matrix(1,0,0,1,151.162414412,-115.963001571)">
			<path d="M1171.2094169591774,666.75107297042 C1171.2094169591774,666.75107297042 1187.8035903144312,674.1614272508373 1187.8035903144312,674.1614272508373 C1187.8035903144312,674.1614272508373 1171.2093297662373,681.5248729422399 1171.2093297662373,681.5248729422399 C1171.2093297662373,681.5248729422399 1171.2094169591774,666.75107297042 1171.2094169591774,666.75107297042 Z" fill="#000000"></path>
		</g>
		<g transform="matrix(1,0,0,1,151.162414412,-115.963001571)">
			<path d="M1171.2093297661918,696.2739215933082 C1171.2093297661918,696.2739215933082 1171.2093330901353,729.6975882923515 1171.2093330901353,729.6975882923515 C1171.2093330901353,729.6975882923515 1132.505996908563,712.283676707887 1132.505996908563,712.283676707887 C1132.505996908563,712.283676707887 1171.2093297661918,696.2739215933082 1171.2093297661918,696.2739215933082 Z" fill="#000000"></path>
		</g>
		<g transform="matrix(1,0,0,1,151.162414412,-115.963001571)">
			<path d="M1171.2093330901353,729.6975882923515 C1171.2093330901353,729.6975882923515 1132.5059969085628,712.2836767078869 1132.5059969085628,712.2836767078869 C1132.5059969085628,712.2836767078869 1146.5349987039656,688.1051555288893 1146.5349987039656,688.1051555288893 C1146.5349987039656,688.1051555288893 1154.6150692189622,684.8904096423863 1154.6150692189622,684.8904096423863 C1154.6150692189622,684.8904096423863 1154.6150692179817,674.1614272508292 1154.6150692179817,674.1614272508292 C1154.6150692179817,674.1614272508292 1171.2093297661756,681.5248729422317 1171.2093297661756,681.5248729422317 C1171.2093297661756,681.5248729422317 1171.2093330901353,729.6975882923515 1171.2093330901353,729.6975882923515 Z" fill="#222222" opacity="0.497396"></path>
		</g>
		<g transform="matrix(1,0,0,1,151.162414412,-115.963001571)">
			<path d="M1171.2094169591774,666.7510729704198 C1171.2094169591774,666.7510729704198 1154.6150692179815,674.1614272508292 1154.6150692179815,674.1614272508292 C1154.6150692179815,674.1614272508292 1171.2093297662377,681.5248729422397 1171.2093297662377,681.5248729422397 C1171.2093297662377,681.5248729422397 1171.2094169591774,666.7510729704198 1171.2094169591774,666.7510729704198 Z" fill="#000000"></path>
		</g>
	</g>
</g></g></svg></svg></g></g></svg></g></svg>